<?xml version="1.0" encoding="UTF-8"?>
<svg id="Camada_2" data-name="Camada 2" xmlns="http://www.w3.org/2000/svg" viewBox="0 0 1935.46 2101.62">
  <defs>
    <style>
      .cls-1 {
        stroke-width: 0px;
      }
    </style>
  </defs>
  <g id="Camada_1-2" data-name="Camada 1">
    <g>
      <g>
        <g>
          <path class="cls-1" d="M288.3,1879.94c0,14.56-2.79,28.22-8.34,40.98-5.56,12.76-13.13,23.92-22.7,33.49-9.57,9.57-20.73,17.14-33.49,22.7-12.76,5.56-26.42,8.34-40.98,8.34H6.87v-351.86h175.93c14.56,0,28.22,2.78,40.98,8.34,12.76,5.56,23.92,13.13,33.49,22.7,9.57,9.57,17.13,20.73,22.7,33.49,5.56,12.76,8.34,26.42,8.34,40.98,0,6.54-.9,13.25-2.7,20.12-1.8,6.87-4.34,13.5-7.61,19.87-3.27,6.38-7.2,12.19-11.78,17.42-4.58,5.24-9.65,9.57-15.21,13.01,5.72,3.11,10.88,7.32,15.46,12.64,4.58,5.32,8.5,11.16,11.78,17.54,3.27,6.38,5.77,13.05,7.48,20,1.72,6.96,2.58,13.7,2.58,20.25ZM77.29,1774.43h105.51c4.91,0,9.49-.9,13.74-2.7,4.25-1.8,7.98-4.29,11.16-7.48,3.19-3.19,5.68-6.95,7.48-11.29,1.8-4.33,2.7-8.96,2.7-13.86s-.9-9.49-2.7-13.74c-1.8-4.25-4.29-7.97-7.48-11.16-3.19-3.19-6.91-5.68-11.16-7.48-4.25-1.8-8.83-2.7-13.74-2.7h-105.51v70.42ZM77.29,1915.02h105.51c4.91,0,9.49-.9,13.74-2.7,4.25-1.8,7.98-4.29,11.16-7.48,3.19-3.19,5.68-6.91,7.48-11.16,1.8-4.25,2.7-8.83,2.7-13.74s-.9-9.49-2.7-13.74c-1.8-4.25-4.29-7.98-7.48-11.16-3.19-3.19-6.91-5.68-11.16-7.48-4.25-1.8-8.83-2.7-13.74-2.7h-105.51v70.17Z"/>
          <path class="cls-1" d="M401.91,1985.44h-67.47v-367.31h67.47v367.31Z"/>
          <path class="cls-1" d="M706.9,1851.72c0,19.63-3.52,37.91-10.55,54.84-7.04,16.93-16.6,31.57-28.71,43.92-12.11,12.35-26.3,22.08-42.57,29.2-16.28,7.12-33.74,10.67-52.39,10.67s-35.87-3.56-52.14-10.67c-16.28-7.11-30.51-16.84-42.69-29.2-12.19-12.35-21.8-26.99-28.83-43.92-7.03-16.93-10.55-35.21-10.55-54.84s3.52-38.44,10.55-55.45c7.03-17.01,16.64-31.69,28.83-44.04,12.18-12.35,26.41-22.04,42.69-29.08,16.27-7.03,33.65-10.55,52.14-10.55s36.11,3.31,52.39,9.94c16.27,6.62,30.46,16.03,42.57,28.22,12.1,12.19,21.67,26.83,28.71,43.92,7.03,17.1,10.55,36.11,10.55,57.05ZM639.42,1851.72c0-10.8-1.76-20.57-5.27-29.32-3.52-8.75-8.31-16.27-14.35-22.57-6.05-6.29-13.13-11.12-21.22-14.48-8.1-3.35-16.73-5.03-25.89-5.03s-17.79,1.68-25.89,5.03c-8.1,3.36-15.13,8.18-21.1,14.48-5.97,6.3-10.67,13.82-14.11,22.57-3.44,8.75-5.15,18.53-5.15,29.32,0,10.14,1.72,19.55,5.15,28.22,3.44,8.67,8.14,16.19,14.11,22.57,5.97,6.38,13.01,11.41,21.1,15.09,8.1,3.68,16.72,5.52,25.89,5.52s17.79-1.72,25.89-5.15c8.1-3.44,15.17-8.26,21.22-14.48,6.05-6.21,10.83-13.74,14.35-22.57,3.52-8.84,5.27-18.56,5.27-29.2Z"/>
          <path class="cls-1" d="M997.9,1851.72c0,19.63-3.52,37.91-10.55,54.84-7.04,16.93-16.6,31.57-28.71,43.92-12.11,12.35-26.3,22.08-42.57,29.2-16.28,7.12-33.74,10.67-52.39,10.67s-35.87-3.56-52.14-10.67c-16.28-7.11-30.51-16.84-42.69-29.2-12.19-12.35-21.8-26.99-28.83-43.92-7.03-16.93-10.55-35.21-10.55-54.84s3.52-38.44,10.55-55.45c7.03-17.01,16.64-31.69,28.83-44.04,12.18-12.35,26.41-22.04,42.69-29.08,16.27-7.03,33.65-10.55,52.14-10.55s36.11,3.31,52.39,9.94c16.27,6.62,30.46,16.03,42.57,28.22,12.1,12.19,21.67,26.83,28.71,43.92,7.03,17.1,10.55,36.11,10.55,57.05ZM930.43,1851.72c0-10.8-1.76-20.57-5.27-29.32-3.52-8.75-8.31-16.27-14.35-22.57-6.05-6.29-13.13-11.12-21.22-14.48-8.1-3.35-16.73-5.03-25.89-5.03s-17.79,1.68-25.89,5.03c-8.1,3.36-15.13,8.18-21.1,14.48-5.97,6.3-10.67,13.82-14.11,22.57-3.44,8.75-5.15,18.53-5.15,29.32,0,10.14,1.72,19.55,5.15,28.22,3.44,8.67,8.14,16.19,14.11,22.57,5.97,6.38,13.01,11.41,21.1,15.09,8.1,3.68,16.72,5.52,25.89,5.52s17.79-1.72,25.89-5.15c8.1-3.44,15.17-8.26,21.22-14.48,6.05-6.21,10.83-13.74,14.35-22.57,3.52-8.84,5.27-18.56,5.27-29.2Z"/>
          <path class="cls-1" d="M1112.49,1985.44h-70.42v-351.86h70.42v140.84h140.6v-140.84h70.42v351.86h-70.42v-140.59h-140.6v140.59Z"/>
          <path class="cls-1" d="M1571.32,1954.77c-5.4,4.91-11.16,9.53-17.3,13.86-6.13,4.34-12.56,8.1-19.26,11.29-6.71,3.19-13.62,5.72-20.73,7.61-7.12,1.88-14.35,2.82-21.71,2.82-16.19,0-31.41-2.86-45.64-8.59-14.23-5.72-26.71-13.86-37.42-24.41-10.72-10.55-19.14-23.39-25.27-38.52-6.13-15.13-9.2-32.1-9.2-50.91v-145.26h66.74v145.26c0,8.83,1.35,16.73,4.05,23.68,2.7,6.96,6.34,12.8,10.92,17.54,4.58,4.75,9.94,8.34,16.07,10.8,6.13,2.45,12.72,3.68,19.75,3.68s13.37-1.59,19.51-4.78c6.13-3.19,11.49-7.4,16.07-12.64,4.58-5.23,8.18-11.16,10.8-17.79,2.61-6.63,3.93-13.45,3.93-20.49v-145.26h66.98v262.79h-16.19l-22.08-30.67Z"/>
          <path class="cls-1" d="M1923.67,1851.72c0,20.61-3.52,39.43-10.55,56.44-7.03,17.01-16.6,31.61-28.71,43.8-12.11,12.19-26.3,21.63-42.57,28.34-16.28,6.7-33.74,10.06-52.39,10.06s-35.87-3.44-52.14-10.3c-16.28-6.87-30.51-16.44-42.69-28.71-12.19-12.27-21.8-26.87-28.83-43.8-7.04-16.93-10.55-35.54-10.55-55.82v-233.59h67.23v122.68c3.6-4.58,7.97-8.67,13.13-12.27,5.15-3.6,10.71-6.54,16.69-8.84,5.97-2.29,12.14-4.05,18.53-5.27,6.38-1.23,12.59-1.84,18.65-1.84,18.65,0,36.11,3.48,52.39,10.43,16.27,6.96,30.46,16.65,42.57,29.08,12.1,12.43,21.67,27.11,28.71,44.04,7.03,16.93,10.55,35.46,10.55,55.58ZM1856.19,1851.72c0-10.14-1.76-19.59-5.27-28.34-3.52-8.75-8.3-16.32-14.35-22.7-6.05-6.38-13.13-11.37-21.23-14.97-8.1-3.6-16.73-5.4-25.88-5.4s-17.79,2.01-25.89,6.01c-8.1,4.01-15.17,9.32-21.22,15.95-6.05,6.62-10.8,14.23-14.23,22.82-3.44,8.59-5.15,17.46-5.15,26.62,0,10.14,1.72,19.55,5.15,28.22,3.44,8.67,8.18,16.19,14.23,22.57,6.05,6.38,13.13,11.41,21.22,15.09,8.1,3.68,16.72,5.52,25.89,5.52s17.79-1.84,25.88-5.52c8.1-3.68,15.17-8.71,21.23-15.09,6.05-6.38,10.83-13.9,14.35-22.57,3.52-8.67,5.27-18.07,5.27-28.22Z"/>
        </g>
        <g>
          <path class="cls-1" d="M66.42,2051.41c0,3.04-.4,5.98-1.19,8.8-.79,2.82-1.9,5.46-3.34,7.93-1.43,2.46-3.17,4.71-5.2,6.74-2.03,2.03-4.27,3.77-6.72,5.22-2.45,1.45-5.09,2.57-7.93,3.36-2.84.79-5.78,1.19-8.82,1.19s-5.98-.39-8.8-1.19c-2.82-.79-5.46-1.91-7.93-3.36-2.46-1.45-4.71-3.19-6.74-5.22-2.03-2.03-3.77-4.28-5.22-6.74-1.45-2.46-2.57-5.11-3.36-7.93-.79-2.82-1.19-5.76-1.19-8.8s.39-5.99,1.19-8.82c.79-2.84,1.91-5.48,3.36-7.93,1.45-2.45,3.19-4.69,5.22-6.72,2.03-2.03,4.28-3.76,6.74-5.2,2.46-1.43,5.11-2.54,7.93-3.34,2.82-.79,5.76-1.19,8.8-1.19s5.98.4,8.82,1.19c2.84.79,5.48,1.9,7.93,3.34,2.45,1.43,4.69,3.17,6.72,5.2,2.03,2.03,3.76,4.27,5.2,6.72,1.43,2.45,2.54,5.09,3.34,7.93.79,2.84,1.19,5.78,1.19,8.82ZM53.65,2051.41c0-2.81-.54-5.46-1.61-7.95-1.07-2.49-2.53-4.66-4.37-6.5-1.84-1.83-4-3.29-6.5-4.37-2.49-1.07-5.14-1.61-7.95-1.61s-5.49.54-7.97,1.61c-2.48,1.07-4.64,2.53-6.5,4.37-1.85,1.84-3.31,4-4.39,6.5-1.07,2.49-1.61,5.14-1.61,7.95s.54,5.44,1.61,7.91c1.07,2.46,2.54,4.62,4.39,6.47,1.85,1.85,4.02,3.32,6.5,4.39,2.48,1.07,5.13,1.61,7.97,1.61s5.46-.54,7.95-1.61c2.49-1.07,4.66-2.54,6.5-4.39,1.83-1.85,3.29-4.01,4.37-6.47,1.07-2.46,1.61-5.1,1.61-7.91Z"/>
          <path class="cls-1" d="M113.35,2083.26h-12.85v-64.22h12.85v25.71h25.66v-25.71h12.85v64.22h-12.85v-25.66h-25.66v25.66Z"/>
          <path class="cls-1" d="M197.1,2077.66c-.98.9-2.04,1.74-3.16,2.53-1.12.79-2.29,1.48-3.52,2.06s-2.49,1.05-3.78,1.39c-1.3.34-2.62.52-3.96.52-2.96,0-5.73-.52-8.33-1.57s-4.87-2.53-6.83-4.46c-1.96-1.93-3.49-4.27-4.61-7.03s-1.68-5.86-1.68-9.29v-26.51h12.18v26.51c0,1.61.24,3.05.74,4.32.49,1.27,1.16,2.34,1.99,3.2.83.87,1.81,1.52,2.93,1.97,1.12.45,2.32.67,3.6.67s2.44-.29,3.56-.87c1.12-.58,2.1-1.35,2.93-2.31.84-.95,1.49-2.04,1.97-3.25.48-1.21.72-2.46.72-3.74v-26.51h12.23v47.97h-2.96l-4.03-5.6Z"/>
          <path class="cls-1" d="M261.41,2058.85c0,3.76-.64,7.2-1.93,10.3-1.28,3.11-3.03,5.77-5.24,7.99-2.21,2.22-4.8,3.95-7.77,5.17-2.97,1.22-6.16,1.83-9.56,1.83s-6.55-.63-9.52-1.88c-2.97-1.25-5.57-3-7.79-5.24-2.22-2.24-3.98-4.9-5.26-7.99-1.28-3.09-1.93-6.49-1.93-10.19v-42.64h12.27v22.39c.66-.83,1.46-1.58,2.4-2.24.94-.66,1.96-1.19,3.04-1.61,1.09-.42,2.22-.74,3.38-.96,1.16-.22,2.3-.34,3.4-.34,3.4,0,6.59.64,9.56,1.9,2.97,1.27,5.56,3.04,7.77,5.31,2.21,2.27,3.96,4.95,5.24,8.04,1.28,3.09,1.93,6.47,1.93,10.14ZM249.1,2058.85c0-1.85-.32-3.57-.96-5.17-.64-1.6-1.52-2.98-2.62-4.14-1.1-1.16-2.4-2.07-3.87-2.73s-3.05-.99-4.72-.99-3.25.37-4.73,1.1c-1.48.73-2.77,1.7-3.87,2.91-1.1,1.21-1.97,2.6-2.6,4.17-.63,1.57-.94,3.19-.94,4.86,0,1.85.31,3.57.94,5.15.63,1.58,1.49,2.96,2.6,4.12,1.1,1.17,2.4,2.08,3.87,2.76s3.05,1.01,4.73,1.01,3.25-.34,4.72-1.01,2.77-1.59,3.87-2.76c1.1-1.16,1.98-2.54,2.62-4.12.64-1.58.96-3.3.96-5.15Z"/>
          <path class="cls-1" d="M340.19,2083.26h-2.96l-4.75-6.58c-1.16,1.05-2.39,2.02-3.69,2.93-1.3.91-2.66,1.7-4.1,2.38-1.43.67-2.9,1.2-4.41,1.59-1.51.39-3.04.58-4.59.58-3.37,0-6.55-.63-9.52-1.9-2.97-1.27-5.57-3.03-7.79-5.29-2.22-2.25-3.98-4.93-5.26-8.02-1.28-3.09-1.93-6.46-1.93-10.1s.64-6.97,1.93-10.08c1.28-3.1,3.04-5.79,5.26-8.06,2.23-2.27,4.82-4.05,7.79-5.33,2.97-1.28,6.14-1.93,9.52-1.93,1.07,0,2.19.09,3.34.27,1.15.18,2.27.47,3.36.87,1.09.4,2.11.93,3.07,1.59.96.66,1.76,1.46,2.42,2.42v-22.39h12.31v67.04ZM327.88,2058.85c0-1.67-.32-3.29-.96-4.86-.64-1.57-1.52-2.96-2.62-4.17-1.1-1.21-2.4-2.18-3.87-2.91-1.48-.73-3.05-1.1-4.72-1.1s-3.25.3-4.73.9c-1.48.6-2.76,1.46-3.85,2.58s-1.95,2.49-2.57,4.1c-.63,1.61-.94,3.44-.94,5.46,0,1.76.31,3.43.94,5.02.63,1.58,1.48,2.97,2.57,4.17,1.09,1.2,2.37,2.13,3.85,2.82s3.05,1.03,4.73,1.03,3.25-.37,4.72-1.1c1.48-.73,2.77-1.7,3.87-2.91,1.1-1.21,1.98-2.6,2.62-4.17s.96-3.19.96-4.86Z"/>
          <path class="cls-1" d="M368.59,2071.52c.48.15.95.25,1.43.29.48.04.95.07,1.43.07,1.2,0,2.34-.16,3.45-.49,1.1-.33,2.14-.8,3.11-1.41.97-.61,1.84-1.36,2.6-2.24.76-.88,1.38-1.86,1.86-2.93l8.96,9c-1.14,1.61-2.44,3.06-3.92,4.34s-3.08,2.37-4.79,3.27c-1.72.9-3.52,1.58-5.42,2.04s-3.85.69-5.84.69c-3.37,0-6.55-.63-9.52-1.88-2.97-1.25-5.57-3-7.79-5.24-2.23-2.24-3.98-4.9-5.26-7.99-1.28-3.09-1.93-6.49-1.93-10.19s.64-7.26,1.93-10.39c1.28-3.13,3.04-5.8,5.26-8.02,2.22-2.21,4.82-3.93,7.79-5.15,2.97-1.22,6.14-1.84,9.52-1.84,2,0,3.96.24,5.87.72,1.91.48,3.72,1.16,5.44,2.06,1.72.9,3.32,1.99,4.81,3.29,1.49,1.3,2.8,2.76,3.94,4.37l-22.93,27.63ZM374.85,2046.31c-.57-.21-1.13-.34-1.68-.4-.55-.06-1.13-.09-1.73-.09-1.67,0-3.25.31-4.72.92s-2.76,1.48-3.85,2.62c-1.09,1.13-1.95,2.5-2.58,4.1-.63,1.6-.94,3.4-.94,5.4,0,.45.02.96.07,1.52.04.57.12,1.14.22,1.73.1.58.23,1.14.38,1.68.15.54.34,1.02.58,1.43l14.24-18.9Z"/>
          <path class="cls-1" d="M475.98,2083.26h-13.75l-24.77-42.28v42.28h-12.85v-64.22h13.75l24.77,42.32v-42.32h12.85v64.22Z"/>
          <path class="cls-1" d="M504.96,2071.52c.48.15.95.25,1.43.29.48.04.95.07,1.43.07,1.2,0,2.34-.16,3.45-.49,1.1-.33,2.14-.8,3.11-1.41.97-.61,1.84-1.36,2.6-2.24.76-.88,1.38-1.86,1.86-2.93l8.96,9c-1.14,1.61-2.44,3.06-3.92,4.34-1.48,1.28-3.08,2.37-4.79,3.27-1.72.9-3.52,1.58-5.42,2.04s-3.85.69-5.84.69c-3.37,0-6.55-.63-9.52-1.88-2.97-1.25-5.57-3-7.79-5.24-2.23-2.24-3.98-4.9-5.26-7.99-1.28-3.09-1.93-6.49-1.93-10.19s.64-7.26,1.93-10.39c1.28-3.13,3.04-5.8,5.26-8.02,2.22-2.21,4.82-3.93,7.79-5.15,2.97-1.22,6.14-1.84,9.52-1.84,2,0,3.96.24,5.87.72,1.91.48,3.72,1.16,5.44,2.06,1.72.9,3.32,1.99,4.81,3.29,1.49,1.3,2.8,2.76,3.94,4.37l-22.93,27.63ZM511.23,2046.31c-.57-.21-1.13-.34-1.68-.4-.55-.06-1.13-.09-1.73-.09-1.67,0-3.25.31-4.72.92s-2.76,1.48-3.85,2.62c-1.09,1.13-1.95,2.5-2.58,4.1-.63,1.6-.94,3.4-.94,5.4,0,.45.02.96.07,1.52.04.57.12,1.14.22,1.73.1.58.23,1.14.38,1.68.15.54.34,1.02.58,1.43l14.24-18.9Z"/>
          <path class="cls-1" d="M580.11,2077.21c0,3.37-.64,6.54-1.93,9.49-1.28,2.96-3.04,5.54-5.26,7.75-2.23,2.21-4.82,3.96-7.8,5.24s-6.14,1.93-9.52,1.93l-6.13-.09v-12.23l6.05.09c1.91,0,3.54-.25,4.88-.74,1.34-.49,2.48-1.17,3.4-2.02.92-.85,1.66-1.83,2.22-2.93.55-1.1.99-2.27,1.32-3.49-.48.78-1.16,1.41-2.06,1.9-.9.49-1.89.9-2.98,1.21-1.09.31-2.22.53-3.4.65-1.18.12-2.28.18-3.29.18-3.37,0-6.55-.58-9.52-1.75s-5.57-2.83-7.79-4.99c-2.23-2.16-3.98-4.81-5.26-7.95-1.28-3.14-1.93-6.67-1.93-10.62,0-3.61.64-6.97,1.93-10.08,1.28-3.1,3.04-5.79,5.26-8.06,2.22-2.27,4.82-4.05,7.79-5.33,2.97-1.28,6.14-1.93,9.52-1.93,1.55,0,3.09.19,4.61.58,1.52.39,3,.92,4.43,1.61,1.43.69,2.8,1.49,4.1,2.42,1.3.92,2.51,1.93,3.65,3l4.75-5.69h2.96v41.83ZM567.79,2058.85c0-1.67-.32-3.29-.96-4.86-.64-1.57-1.52-2.96-2.62-4.17-1.1-1.21-2.39-2.18-3.87-2.91-1.48-.73-3.05-1.1-4.73-1.1s-3.25.29-4.72.85c-1.48.57-2.76,1.4-3.85,2.51-1.09,1.1-1.95,2.47-2.58,4.1-.63,1.63-.94,3.49-.94,5.58s.31,3.8.94,5.4c.63,1.6,1.48,2.96,2.58,4.1,1.09,1.14,2.37,2.01,3.85,2.62,1.48.61,3.05.92,4.72.92s3.25-.37,4.73-1.1c1.48-.73,2.77-1.7,3.87-2.91,1.1-1.21,1.98-2.6,2.62-4.17s.96-3.19.96-4.86Z"/>
          <path class="cls-1" d="M635.78,2058.85c0,3.58-.64,6.92-1.93,10.01-1.28,3.09-3.03,5.76-5.24,8.02-2.21,2.25-4.8,4.03-7.77,5.33-2.97,1.3-6.16,1.95-9.56,1.95s-6.55-.65-9.52-1.95c-2.97-1.3-5.57-3.08-7.79-5.33-2.22-2.26-3.98-4.93-5.26-8.02-1.28-3.09-1.93-6.43-1.93-10.01s.64-7.02,1.93-10.12c1.28-3.11,3.04-5.79,5.26-8.04,2.23-2.26,4.82-4.02,7.79-5.31,2.97-1.28,6.14-1.93,9.52-1.93s6.59.61,9.56,1.81c2.97,1.21,5.56,2.93,7.77,5.15,2.21,2.23,3.96,4.9,5.24,8.02s1.93,6.59,1.93,10.41ZM623.46,2058.85c0-1.97-.32-3.75-.96-5.35-.64-1.6-1.52-2.97-2.62-4.12-1.1-1.15-2.4-2.03-3.87-2.64-1.48-.61-3.05-.92-4.72-.92s-3.25.31-4.73.92-2.76,1.49-3.85,2.64c-1.09,1.15-1.95,2.52-2.57,4.12-.63,1.6-.94,3.38-.94,5.35,0,1.85.31,3.57.94,5.15.63,1.58,1.48,2.96,2.57,4.12,1.09,1.17,2.37,2.08,3.85,2.76s3.05,1.01,4.73,1.01,3.25-.31,4.72-.94c1.48-.63,2.77-1.51,3.87-2.64,1.1-1.13,1.98-2.51,2.62-4.12.64-1.61.96-3.39.96-5.33ZM611.1,2029.87l-5.06-6.67,13.3-12.41,7.34,9.36-15.59,9.72Z"/>
          <path class="cls-1" d="M684.46,2044.83l-8.96,9c-.45-1.25-1.06-2.38-1.84-3.38-.78-1-1.65-1.84-2.62-2.53-.97-.69-2.02-1.21-3.16-1.57-1.13-.36-2.3-.54-3.49-.54-1.67,0-3.25.34-4.73,1.03-1.48.69-2.76,1.65-3.85,2.89s-1.95,2.71-2.57,4.41-.94,3.58-.94,5.64c0,1.67.31,3.24.94,4.7.63,1.46,1.48,2.75,2.57,3.85,1.09,1.11,2.37,1.97,3.85,2.6,1.48.63,3.05.94,4.73.94,1.19,0,2.34-.16,3.45-.49,1.1-.33,2.14-.8,3.11-1.41.97-.61,1.84-1.36,2.6-2.24.76-.88,1.38-1.86,1.86-2.93l8.96,9c-1.13,1.61-2.44,3.06-3.92,4.34-1.48,1.28-3.07,2.37-4.79,3.27-1.72.9-3.52,1.58-5.42,2.04-1.9.46-3.85.69-5.84.69-3.37,0-6.55-.63-9.52-1.9-2.97-1.27-5.57-3.01-7.79-5.22-2.22-2.21-3.98-4.79-5.26-7.75s-1.93-6.12-1.93-9.5c0-3.67.64-7.11,1.93-10.3s3.04-5.98,5.26-8.35c2.23-2.37,4.82-4.25,7.79-5.62s6.14-2.06,9.52-2.06c2,0,3.96.26,5.89.76s3.76,1.25,5.51,2.22c1.75.97,3.36,2.16,4.84,3.56,1.48,1.4,2.76,3.02,3.83,4.84Z"/>
          <path class="cls-1" d="M704.84,2022.26c0,1.14-.22,2.19-.65,3.18-.43.98-1.02,1.84-1.77,2.57-.75.73-1.62,1.32-2.62,1.75s-2.07.65-3.2.65-2.2-.22-3.2-.65-1.87-1.02-2.6-1.75c-.73-.73-1.31-1.59-1.75-2.57-.43-.99-.65-2.04-.65-3.18s.22-2.16.65-3.16,1.01-1.87,1.75-2.6c.73-.73,1.6-1.31,2.6-1.75,1-.43,2.07-.65,3.2-.65s2.2.22,3.2.65c1,.43,1.87,1.02,2.62,1.75.75.73,1.33,1.6,1.77,2.6.43,1,.65,2.05.65,3.16ZM702.73,2083.26h-12.31v-47.97h12.31v47.97Z"/>
          <path class="cls-1" d="M758.4,2058.85c0,3.58-.64,6.92-1.93,10.01-1.28,3.09-3.03,5.76-5.24,8.02-2.21,2.25-4.8,4.03-7.77,5.33-2.97,1.3-6.16,1.95-9.56,1.95s-6.55-.65-9.52-1.95c-2.97-1.3-5.57-3.08-7.79-5.33-2.22-2.26-3.98-4.93-5.26-8.02-1.28-3.09-1.93-6.43-1.93-10.01s.64-7.02,1.93-10.12c1.28-3.11,3.04-5.79,5.26-8.04,2.23-2.26,4.82-4.02,7.79-5.31,2.97-1.28,6.14-1.93,9.52-1.93s6.59.61,9.56,1.81c2.97,1.21,5.56,2.93,7.77,5.15,2.21,2.23,3.96,4.9,5.24,8.02s1.93,6.59,1.93,10.41ZM746.09,2058.85c0-1.97-.32-3.75-.96-5.35-.64-1.6-1.52-2.97-2.62-4.12-1.1-1.15-2.4-2.03-3.87-2.64-1.48-.61-3.05-.92-4.72-.92s-3.25.31-4.73.92-2.76,1.49-3.85,2.64c-1.09,1.15-1.95,2.52-2.57,4.12-.63,1.6-.94,3.38-.94,5.35,0,1.85.31,3.57.94,5.15.63,1.58,1.48,2.96,2.57,4.12,1.09,1.17,2.37,2.08,3.85,2.76s3.05,1.01,4.73,1.01,3.25-.31,4.72-.94c1.48-.63,2.77-1.51,3.87-2.64,1.1-1.13,1.98-2.51,2.62-4.12.64-1.61.96-3.39.96-5.33Z"/>
          <path class="cls-1" d="M791.5,2083.26h-27.95v-12.18h27.95c.83,0,1.55-.3,2.15-.9s.9-1.31.9-2.15-.3-1.43-.9-1.7-1.32-.4-2.15-.4h-12.72c-2.12,0-4.1-.4-5.95-1.21-1.85-.8-3.47-1.9-4.84-3.29-1.37-1.39-2.46-3.01-3.25-4.86-.79-1.85-1.19-3.83-1.19-5.96s.39-4.1,1.19-5.95,1.87-3.46,3.25-4.84c1.37-1.37,2.99-2.46,4.84-3.25,1.85-.79,3.83-1.19,5.95-1.19h24.77v12.18h-24.77c-.84,0-1.55.3-2.15.9-.6.6-.9,1.32-.9,2.15s.3,1.61.9,2.22c.6.61,1.31.92,2.15.92h12.72c2.09,0,4.06.35,5.91,1.05,1.85.7,3.46,1.68,4.84,2.93,1.37,1.25,2.46,2.76,3.27,4.52.81,1.76,1.21,3.69,1.21,5.78s-.4,4.1-1.21,5.93c-.8,1.84-1.9,3.45-3.27,4.84-1.37,1.39-2.99,2.48-4.84,3.27-1.85.79-3.82,1.19-5.91,1.19Z"/>
          <path class="cls-1" d="M885.33,2101.53h-12.32v-21.5c-.92.54-1.87,1.06-2.84,1.57-.97.51-1.97.96-3,1.37-1.03.4-2.08.72-3.13.96-1.06.24-2.13.36-3.2.36-3.37,0-6.55-.62-9.52-1.86-2.97-1.24-5.57-2.98-7.79-5.22-2.23-2.24-3.98-4.92-5.26-8.04-1.28-3.12-1.93-6.56-1.93-10.32s.64-7.25,1.93-10.37c1.28-3.12,3.04-5.78,5.26-7.99,2.22-2.21,4.82-3.92,7.79-5.13,2.97-1.21,6.14-1.81,9.52-1.81,1.55,0,3.08.19,4.59.58,1.51.39,2.98.92,4.41,1.59,1.43.67,2.8,1.47,4.1,2.4,1.3.93,2.53,1.91,3.7,2.96l4.75-5.69h2.96v66.15ZM873.01,2058.85c0-1.67-.32-3.29-.96-4.86-.64-1.57-1.52-2.96-2.62-4.17-1.1-1.21-2.39-2.18-3.87-2.91-1.48-.73-3.05-1.1-4.73-1.1s-3.25.31-4.72.92-2.76,1.48-3.85,2.62c-1.09,1.13-1.95,2.5-2.58,4.1-.63,1.6-.94,3.4-.94,5.4s.31,3.9.94,5.53c.63,1.63,1.48,2.99,2.58,4.1,1.09,1.1,2.37,1.95,3.85,2.53,1.48.58,3.05.87,4.72.87s3.25-.37,4.73-1.1c1.48-.73,2.77-1.7,3.87-2.91,1.1-1.21,1.98-2.6,2.62-4.17.64-1.57.96-3.19.96-4.86Z"/>
          <path class="cls-1" d="M929.89,2077.66c-.98.9-2.04,1.74-3.16,2.53-1.12.79-2.29,1.48-3.52,2.06s-2.49,1.05-3.78,1.39c-1.3.34-2.62.52-3.96.52-2.96,0-5.73-.52-8.33-1.57-2.6-1.05-4.87-2.53-6.83-4.46-1.96-1.93-3.49-4.27-4.61-7.03-1.12-2.76-1.68-5.86-1.68-9.29v-26.51h12.18v26.51c0,1.61.24,3.05.74,4.32.49,1.27,1.16,2.34,1.99,3.2.83.87,1.81,1.52,2.93,1.97,1.12.45,2.32.67,3.6.67s2.44-.29,3.56-.87c1.12-.58,2.1-1.35,2.93-2.31.84-.95,1.49-2.04,1.97-3.25.48-1.21.72-2.46.72-3.74v-26.51h12.23v47.97h-2.96l-4.03-5.6Z"/>
          <path class="cls-1" d="M965.27,2071.52c.48.15.95.25,1.43.29.48.04.95.07,1.43.07,1.2,0,2.34-.16,3.45-.49,1.1-.33,2.14-.8,3.11-1.41.97-.61,1.84-1.36,2.6-2.24.76-.88,1.38-1.86,1.86-2.93l8.96,9c-1.14,1.61-2.44,3.06-3.92,4.34s-3.08,2.37-4.79,3.27c-1.72.9-3.52,1.58-5.42,2.04s-3.85.69-5.84.69c-3.37,0-6.55-.63-9.52-1.88-2.97-1.25-5.57-3-7.79-5.24-2.23-2.24-3.98-4.9-5.26-7.99-1.28-3.09-1.93-6.49-1.93-10.19s.64-7.26,1.93-10.39c1.28-3.13,3.04-5.8,5.26-8.02,2.22-2.21,4.82-3.93,7.79-5.15,2.97-1.22,6.14-1.84,9.52-1.84,2,0,3.96.24,5.87.72,1.91.48,3.72,1.16,5.44,2.06,1.72.9,3.32,1.99,4.81,3.29,1.49,1.3,2.8,2.76,3.94,4.37l-22.93,27.63ZM971.54,2046.31c-.57-.21-1.13-.34-1.68-.4-.55-.06-1.13-.09-1.73-.09-1.67,0-3.25.31-4.72.92s-2.76,1.48-3.85,2.62c-1.09,1.13-1.95,2.5-2.58,4.1-.63,1.6-.94,3.4-.94,5.4,0,.45.02.96.07,1.52.04.57.12,1.14.22,1.73.1.58.23,1.14.38,1.68.15.54.34,1.02.58,1.43l14.24-18.9Z"/>
          <path class="cls-1" d="M1017.53,2038.29c0-2.66.51-5.15,1.52-7.48,1.02-2.33,2.4-4.37,4.14-6.11,1.75-1.75,3.78-3.13,6.11-4.14,2.33-1.01,4.82-1.52,7.48-1.52h29.47v12.85h-29.47c-.9,0-1.73.16-2.51.49-.78.33-1.46.78-2.04,1.37-.58.58-1.04,1.26-1.36,2.04-.33.78-.49,1.61-.49,2.51s.16,1.74.49,2.53c.33.79.78,1.48,1.36,2.06.58.58,1.26,1.04,2.04,1.37.77.33,1.61.49,2.51.49h12.85c2.66,0,5.16.5,7.5,1.5,2.34,1,4.39,2.37,6.13,4.12,1.75,1.75,3.12,3.79,4.12,6.13,1,2.35,1.5,4.85,1.5,7.5s-.5,5.15-1.5,7.48c-1,2.33-2.37,4.37-4.12,6.11-1.75,1.75-3.79,3.13-6.13,4.14s-4.84,1.52-7.5,1.52h-28.53v-12.85h28.53c.9,0,1.73-.16,2.51-.49.77-.33,1.45-.79,2.04-1.37.58-.58,1.04-1.26,1.37-2.04.33-.78.49-1.61.49-2.51s-.16-1.73-.49-2.51c-.33-.77-.78-1.45-1.37-2.04-.58-.58-1.26-1.04-2.04-1.37-.78-.33-1.61-.49-2.51-.49h-12.85c-2.66,0-5.15-.51-7.48-1.52-2.33-1.02-4.37-2.4-6.11-4.14-1.75-1.75-3.13-3.79-4.14-6.14-1.01-2.34-1.52-4.84-1.52-7.5Z"/>
          <path class="cls-1" d="M1090.44,2022.26c0,1.14-.22,2.19-.65,3.18-.43.98-1.02,1.84-1.77,2.57-.75.73-1.62,1.32-2.62,1.75s-2.07.65-3.2.65-2.2-.22-3.2-.65-1.87-1.02-2.6-1.75c-.73-.73-1.31-1.59-1.75-2.57-.43-.99-.65-2.04-.65-3.18s.22-2.16.65-3.16,1.01-1.87,1.75-2.6c.73-.73,1.6-1.31,2.6-1.75,1-.43,2.07-.65,3.2-.65s2.2.22,3.2.65c1,.43,1.87,1.02,2.62,1.75.75.73,1.33,1.6,1.77,2.6.43,1,.65,2.05.65,3.16ZM1088.34,2083.26h-12.31v-47.97h12.31v47.97Z"/>
          <path class="cls-1" d="M1158.65,2083.26h-12.18v-30.45c0-.84-.16-1.63-.47-2.37-.31-.75-.75-1.4-1.32-1.97s-1.22-1.01-1.97-1.32c-.75-.31-1.54-.47-2.37-.47s-1.62.16-2.35.47c-.73.31-1.37.75-1.93,1.32-.55.57-.99,1.22-1.3,1.97-.31.75-.47,1.54-.47,2.37v30.45h-12.23v-30.45c0-.84-.16-1.63-.47-2.37-.31-.75-.75-1.4-1.32-1.97s-1.22-1.01-1.97-1.32c-.75-.31-1.54-.47-2.37-.47s-1.62.16-2.35.47c-.73.31-1.37.75-1.93,1.32-.55.57-.99,1.22-1.3,1.97-.31.75-.47,1.54-.47,2.37v30.45h-12.23v-47.97h2.96l3.31,3.67c1.7-1.43,3.57-2.54,5.62-3.34,2.04-.79,4.17-1.19,6.38-1.19s4.43.42,6.56,1.25,4.01,2.28,5.62,4.34c.75-1.01,1.6-1.88,2.55-2.6.95-.72,1.96-1.3,3.02-1.75,1.06-.45,2.16-.77,3.29-.96,1.14-.19,2.26-.29,3.36-.29,2.54,0,4.92.48,7.14,1.43,2.22.95,4.16,2.26,5.82,3.92,1.66,1.66,2.96,3.61,3.92,5.84.95,2.24,1.43,4.63,1.43,7.17v30.45Z"/>
          <path class="cls-1" d="M1179.88,2101.53h-12.31v-66.24h2.96l4.88,5.78c1.1-1.05,2.31-2.03,3.63-2.96,1.31-.92,2.68-1.72,4.1-2.4,1.42-.67,2.89-1.2,4.41-1.59,1.52-.39,3.06-.58,4.61-.58,3.37,0,6.54.6,9.52,1.81,2.97,1.21,5.57,2.92,7.79,5.13,2.22,2.21,3.98,4.88,5.26,7.99,1.28,3.12,1.93,6.58,1.93,10.37s-.64,7.49-1.93,10.64c-1.28,3.15-3.04,5.82-5.26,8.02-2.23,2.19-4.82,3.87-7.79,5.04-2.97,1.16-6.14,1.75-9.52,1.75-1.07,0-2.14-.12-3.2-.36s-2.11-.56-3.13-.96c-1.03-.4-2.05-.86-3.05-1.37-1-.51-1.96-1.03-2.89-1.57v21.5ZM1204.38,2058.85c0-2.03-.32-3.85-.96-5.46-.64-1.61-1.52-2.98-2.62-4.1s-2.4-1.98-3.9-2.58c-1.49-.6-3.08-.9-4.75-.9s-3.25.3-4.73.9c-1.48.6-2.77,1.46-3.87,2.58s-1.98,2.49-2.62,4.1c-.64,1.61-.96,3.44-.96,5.46s.32,3.72.96,5.33c.64,1.61,1.51,2.99,2.62,4.12,1.1,1.14,2.4,2.02,3.87,2.64,1.48.63,3.05.94,4.73.94s3.25-.31,4.75-.94c1.49-.63,2.79-1.51,3.9-2.64,1.1-1.13,1.98-2.51,2.62-4.12.64-1.61.96-3.39.96-5.33Z"/>
          <path class="cls-1" d="M1235.73,2083.26h-12.31v-67.04h12.31v67.04Z"/>
          <path class="cls-1" d="M1259.47,2022.26c0,1.14-.22,2.19-.65,3.18-.43.98-1.02,1.84-1.77,2.57-.75.73-1.62,1.32-2.62,1.75s-2.07.65-3.2.65-2.2-.22-3.2-.65-1.87-1.02-2.6-1.75c-.73-.73-1.31-1.59-1.75-2.57-.43-.99-.65-2.04-.65-3.18s.22-2.16.65-3.16,1.01-1.87,1.75-2.6c.73-.73,1.6-1.31,2.6-1.75,1-.43,2.07-.65,3.2-.65s2.2.22,3.2.65c1,.43,1.87,1.02,2.62,1.75.75.73,1.33,1.6,1.77,2.6.43,1,.65,2.05.65,3.16ZM1257.36,2083.26h-12.31v-47.97h12.31v47.97Z"/>
          <path class="cls-1" d="M1282.22,2083.26h-12.23v-35.78h-5.96v-12.18h5.96v-2.28c0-2.96.56-5.73,1.68-8.33,1.12-2.6,2.66-4.86,4.61-6.78,1.96-1.93,4.23-3.45,6.83-4.57,2.6-1.12,5.37-1.68,8.33-1.68h9.18v12.18h-9.18c-1.31,0-2.53.23-3.65.69s-2.09,1.1-2.91,1.93-1.47,1.79-1.95,2.91c-.48,1.12-.72,2.34-.72,3.65v2.28h15v12.18h-15v35.78Z"/>
          <path class="cls-1" d="M1319.17,2022.26c0,1.14-.22,2.19-.65,3.18-.43.98-1.02,1.84-1.77,2.57-.75.73-1.62,1.32-2.62,1.75s-2.07.65-3.2.65-2.2-.22-3.2-.65-1.87-1.02-2.6-1.75c-.73-.73-1.31-1.59-1.75-2.57-.43-.99-.65-2.04-.65-3.18s.22-2.16.65-3.16,1.01-1.87,1.75-2.6c.73-.73,1.6-1.31,2.6-1.75,1-.43,2.07-.65,3.2-.65s2.2.22,3.2.65c1,.43,1.87,1.02,2.62,1.75.75.73,1.33,1.6,1.77,2.6.43,1,.65,2.05.65,3.16ZM1317.06,2083.26h-12.31v-47.97h12.31v47.97Z"/>
          <path class="cls-1" d="M1368.3,2044.83l-8.96,9c-.45-1.25-1.06-2.38-1.84-3.38-.78-1-1.65-1.84-2.62-2.53-.97-.69-2.02-1.21-3.16-1.57-1.13-.36-2.3-.54-3.49-.54-1.67,0-3.25.34-4.73,1.03s-2.76,1.65-3.85,2.89c-1.09,1.24-1.95,2.71-2.57,4.41-.63,1.7-.94,3.58-.94,5.64,0,1.67.31,3.24.94,4.7.63,1.46,1.48,2.75,2.57,3.85,1.09,1.11,2.37,1.97,3.85,2.6,1.48.63,3.05.94,4.73.94,1.19,0,2.34-.16,3.45-.49,1.1-.33,2.14-.8,3.11-1.41.97-.61,1.84-1.36,2.6-2.24.76-.88,1.38-1.86,1.86-2.93l8.96,9c-1.13,1.61-2.44,3.06-3.92,4.34-1.48,1.28-3.07,2.37-4.79,3.27-1.72.9-3.52,1.58-5.42,2.04-1.9.46-3.85.69-5.84.69-3.37,0-6.55-.63-9.52-1.9s-5.57-3.01-7.79-5.22c-2.22-2.21-3.98-4.79-5.26-7.75-1.28-2.96-1.93-6.12-1.93-9.5,0-3.67.64-7.11,1.93-10.3s3.04-5.98,5.26-8.35c2.23-2.37,4.82-4.25,7.79-5.62s6.14-2.06,9.52-2.06c2,0,3.96.26,5.89.76s3.76,1.25,5.51,2.22c1.75.97,3.36,2.16,4.84,3.56s2.76,3.02,3.83,4.84Z"/>
          <path class="cls-1" d="M1419.98,2083.26h-2.96l-4.75-6.58c-1.17,1.05-2.4,2.02-3.7,2.93-1.3.91-2.66,1.7-4.1,2.38-1.43.67-2.9,1.2-4.41,1.59-1.51.39-3.04.58-4.59.58-3.37,0-6.55-.57-9.52-1.7s-5.57-2.78-7.79-4.95c-2.23-2.16-3.98-4.81-5.26-7.95s-1.93-6.7-1.93-10.7c0-3.73.64-7.16,1.93-10.28,1.28-3.12,3.04-5.8,5.26-8.04,2.22-2.24,4.82-3.98,7.79-5.22,2.97-1.24,6.14-1.86,9.52-1.86,1.55,0,3.09.19,4.61.58s3,.92,4.43,1.61c1.43.69,2.8,1.49,4.1,2.42s2.51,1.93,3.65,3l4.75-5.69h2.96v47.88ZM1407.66,2058.85c0-1.67-.32-3.29-.96-4.86-.64-1.57-1.52-2.96-2.62-4.17-1.1-1.21-2.39-2.18-3.87-2.91-1.48-.73-3.05-1.1-4.73-1.1s-3.25.29-4.72.85c-1.48.57-2.76,1.4-3.85,2.51-1.09,1.1-1.95,2.47-2.58,4.1-.63,1.63-.94,3.49-.94,5.58s.31,3.95.94,5.58c.63,1.63,1.48,2.99,2.58,4.1,1.09,1.1,2.37,1.94,3.85,2.51s3.05.85,4.72.85,3.25-.37,4.73-1.1c1.48-.73,2.77-1.7,3.87-2.91,1.1-1.21,1.98-2.6,2.62-4.17s.96-3.19.96-4.86Z"/>
          <path class="cls-1" d="M1481.29,2083.26h-27.95v-12.18h27.95c.83,0,1.55-.3,2.15-.9s.9-1.31.9-2.15-.3-1.43-.9-1.7-1.32-.4-2.15-.4h-12.72c-2.12,0-4.1-.4-5.95-1.21-1.85-.8-3.47-1.9-4.84-3.29-1.37-1.39-2.46-3.01-3.25-4.86-.79-1.85-1.19-3.83-1.19-5.96s.39-4.1,1.19-5.95c.79-1.85,1.87-3.46,3.25-4.84s2.99-2.46,4.84-3.25c1.85-.79,3.83-1.19,5.95-1.19h24.77v12.18h-24.77c-.84,0-1.55.3-2.15.9-.6.6-.9,1.32-.9,2.15s.3,1.61.9,2.22c.6.61,1.31.92,2.15.92h12.72c2.09,0,4.06.35,5.91,1.05,1.85.7,3.46,1.68,4.84,2.93,1.37,1.25,2.46,2.76,3.27,4.52.81,1.76,1.21,3.69,1.21,5.78s-.4,4.1-1.21,5.93c-.8,1.84-1.9,3.45-3.27,4.84-1.37,1.39-2.99,2.48-4.84,3.27-1.85.79-3.82,1.19-5.91,1.19Z"/>
          <path class="cls-1" d="M1538.26,2077.66c-.98.9-2.04,1.74-3.16,2.53-1.12.79-2.29,1.48-3.52,2.06s-2.49,1.05-3.78,1.39c-1.3.34-2.62.52-3.96.52-2.96,0-5.73-.52-8.33-1.57s-4.87-2.53-6.83-4.46c-1.96-1.93-3.49-4.27-4.61-7.03s-1.68-5.86-1.68-9.29v-26.51h12.18v26.51c0,1.61.24,3.05.74,4.32.49,1.27,1.16,2.34,1.99,3.2.83.87,1.81,1.52,2.93,1.97,1.12.45,2.32.67,3.6.67s2.44-.29,3.56-.87c1.12-.58,2.1-1.35,2.93-2.31.84-.95,1.49-2.04,1.97-3.25.48-1.21.72-2.46.72-3.74v-26.51h12.23v47.97h-2.96l-4.03-5.6Z"/>
          <path class="cls-1" d="M1601,2083.26h-2.96l-4.75-6.58c-1.17,1.05-2.4,2.02-3.7,2.93-1.3.91-2.66,1.7-4.1,2.38-1.43.67-2.9,1.2-4.41,1.59-1.51.39-3.04.58-4.59.58-3.37,0-6.55-.57-9.52-1.7-2.97-1.13-5.57-2.78-7.79-4.95-2.23-2.16-3.98-4.81-5.26-7.95-1.28-3.14-1.93-6.7-1.93-10.7,0-3.73.64-7.16,1.93-10.28,1.28-3.12,3.04-5.8,5.26-8.04,2.22-2.24,4.82-3.98,7.79-5.22,2.97-1.24,6.14-1.86,9.52-1.86,1.55,0,3.09.19,4.61.58,1.52.39,3,.92,4.43,1.61,1.43.69,2.8,1.49,4.1,2.42s2.51,1.93,3.65,3l4.75-5.69h2.96v47.88ZM1588.69,2058.85c0-1.67-.32-3.29-.96-4.86-.64-1.57-1.52-2.96-2.62-4.17-1.1-1.21-2.39-2.18-3.87-2.91-1.48-.73-3.05-1.1-4.73-1.1s-3.25.29-4.72.85c-1.48.57-2.76,1.4-3.85,2.51-1.09,1.1-1.95,2.47-2.58,4.1-.63,1.63-.94,3.49-.94,5.58s.31,3.95.94,5.58c.63,1.63,1.48,2.99,2.58,4.1,1.09,1.1,2.37,1.94,3.85,2.51s3.05.85,4.72.85,3.25-.37,4.73-1.1c1.48-.73,2.77-1.7,3.87-2.91,1.1-1.21,1.98-2.6,2.62-4.17.64-1.57.96-3.19.96-4.86Z"/>
          <path class="cls-1" d="M1688.38,2076.76c-2.99,2.54-6.32,4.49-9.99,5.84-3.67,1.36-7.49,2.04-11.47,2.04-3.04,0-5.98-.39-8.8-1.19-2.82-.79-5.46-1.91-7.91-3.36-2.45-1.45-4.69-3.18-6.72-5.2-2.03-2.01-3.76-4.25-5.19-6.72-1.43-2.46-2.55-5.11-3.34-7.95-.79-2.84-1.19-5.78-1.19-8.82s.39-5.97,1.19-8.78c.79-2.81,1.9-5.44,3.34-7.9,1.43-2.46,3.16-4.7,5.19-6.72,2.03-2.01,4.27-3.74,6.72-5.17,2.45-1.43,5.08-2.55,7.91-3.34,2.82-.79,5.75-1.19,8.8-1.19,3.97,0,7.79.68,11.47,2.04,3.67,1.36,7,3.31,9.99,5.84l-6.72,11.2c-1.94-1.97-4.18-3.52-6.72-4.64-2.54-1.12-5.21-1.68-8.02-1.68s-5.44.54-7.9,1.61c-2.46,1.07-4.62,2.53-6.47,4.37-1.85,1.83-3.31,3.98-4.39,6.45-1.07,2.46-1.61,5.1-1.61,7.9s.54,5.49,1.61,7.97c1.07,2.48,2.54,4.64,4.39,6.5,1.85,1.85,4.01,3.31,6.47,4.39,2.46,1.07,5.1,1.61,7.9,1.61,1.61,0,3.18-.19,4.7-.58,1.52-.39,2.97-.92,4.35-1.61v-18.27h12.41v25.35Z"/>
          <path class="cls-1" d="M1716.06,2071.52c.48.15.95.25,1.43.29.48.04.95.07,1.43.07,1.2,0,2.34-.16,3.45-.49,1.1-.33,2.14-.8,3.11-1.41.97-.61,1.84-1.36,2.6-2.24.76-.88,1.38-1.86,1.86-2.93l8.96,9c-1.14,1.61-2.44,3.06-3.92,4.34s-3.08,2.37-4.79,3.27c-1.72.9-3.52,1.58-5.42,2.04s-3.85.69-5.84.69c-3.37,0-6.55-.63-9.52-1.88-2.97-1.25-5.57-3-7.79-5.24-2.23-2.24-3.98-4.9-5.26-7.99-1.28-3.09-1.93-6.49-1.93-10.19s.64-7.26,1.93-10.39c1.28-3.13,3.04-5.8,5.26-8.02,2.22-2.21,4.82-3.93,7.79-5.15,2.97-1.22,6.14-1.84,9.52-1.84,2,0,3.96.24,5.87.72,1.91.48,3.72,1.16,5.44,2.06,1.72.9,3.32,1.99,4.81,3.29,1.49,1.3,2.8,2.76,3.94,4.37l-22.93,27.63ZM1722.33,2046.31c-.57-.21-1.13-.34-1.68-.4-.55-.06-1.13-.09-1.73-.09-1.67,0-3.25.31-4.72.92s-2.76,1.48-3.85,2.62c-1.09,1.13-1.95,2.5-2.58,4.1-.63,1.6-.94,3.4-.94,5.4,0,.45.02.96.07,1.52.04.57.12,1.14.22,1.73.1.58.23,1.14.38,1.68.15.54.34,1.02.58,1.43l14.24-18.9Z"/>
          <path class="cls-1" d="M1771.46,2083.26h-27.95v-12.18h27.95c.83,0,1.55-.3,2.15-.9s.9-1.31.9-2.15-.3-1.43-.9-1.7-1.32-.4-2.15-.4h-12.72c-2.12,0-4.1-.4-5.95-1.21-1.85-.8-3.47-1.9-4.84-3.29-1.37-1.39-2.46-3.01-3.25-4.86-.79-1.85-1.19-3.83-1.19-5.96s.39-4.1,1.19-5.95,1.87-3.46,3.25-4.84,2.99-2.46,4.84-3.25c1.85-.79,3.83-1.19,5.95-1.19h24.77v12.18h-24.77c-.84,0-1.55.3-2.15.9-.6.6-.9,1.32-.9,2.15s.3,1.61.9,2.22c.6.61,1.31.92,2.15.92h12.72c2.09,0,4.06.35,5.91,1.05,1.85.7,3.46,1.68,4.84,2.93,1.37,1.25,2.46,2.76,3.27,4.52.81,1.76,1.21,3.69,1.21,5.78s-.4,4.1-1.21,5.93c-.8,1.84-1.9,3.45-3.27,4.84-1.37,1.39-2.99,2.48-4.84,3.27-1.85.79-3.82,1.19-5.91,1.19Z"/>
          <path class="cls-1" d="M1817.23,2083.26c-2.96,0-5.73-.56-8.33-1.68-2.6-1.12-4.87-2.66-6.83-4.61s-3.49-4.23-4.61-6.83c-1.12-2.6-1.68-5.37-1.68-8.33v-14.24h-5.96v-12.18h5.96v-19.17h12.18v19.17h18.54v12.18h-18.54v14.24c0,1.28.24,2.49.72,3.6s1.13,2.1,1.97,2.93c.84.84,1.82,1.5,2.96,1.99s2.34.74,3.63.74h9.27v12.18h-9.27Z"/>
          <path class="cls-1" d="M1879.8,2083.26h-2.96l-4.75-6.58c-1.17,1.05-2.4,2.02-3.7,2.93-1.3.91-2.66,1.7-4.1,2.38-1.43.67-2.9,1.2-4.41,1.59-1.51.39-3.04.58-4.59.58-3.37,0-6.55-.57-9.52-1.7s-5.57-2.78-7.79-4.95c-2.23-2.16-3.98-4.81-5.26-7.95-1.28-3.14-1.93-6.7-1.93-10.7,0-3.73.64-7.16,1.93-10.28,1.28-3.12,3.04-5.8,5.26-8.04,2.22-2.24,4.82-3.98,7.79-5.22,2.97-1.24,6.14-1.86,9.52-1.86,1.55,0,3.09.19,4.61.58,1.52.39,3,.92,4.43,1.61,1.43.69,2.8,1.49,4.1,2.42s2.51,1.93,3.65,3l4.75-5.69h2.96v47.88ZM1869.05,2015.05c.18.54.34,1.12.49,1.75.12.54.23,1.15.34,1.83.1.69.16,1.42.16,2.19,0,1.5-.22,2.83-.67,4.01-.45,1.18-1.05,2.18-1.81,3s-1.67,1.45-2.73,1.88c-1.06.43-2.19.65-3.38.65-1.34,0-2.49-.29-3.45-.87-.96-.58-1.8-1.22-2.53-1.93-.73-.7-1.42-1.34-2.06-1.93-.64-.58-1.32-.87-2.04-.87-.57,0-1.03.25-1.39.76-.36.51-.54,1.02-.54,1.52,0,.6.1,1.17.29,1.73.19.55.45,1.08.78,1.59l-8.42.36c-.3-.54-.57-1.17-.81-1.88-.21-.6-.39-1.32-.54-2.17s-.22-1.8-.22-2.84c0-2.66.81-4.74,2.42-6.25,1.61-1.51,3.81-2.26,6.58-2.26,1.17,0,2.16.14,2.98.42.82.29,1.54.64,2.15,1.05.61.42,1.14.87,1.59,1.36.45.49.86.95,1.23,1.37s.75.77,1.12,1.05c.37.28.8.42,1.28.42.51,0,.9-.22,1.16-.67s.4-1.01.4-1.7c0-.81-.24-1.61-.72-2.42l8.33-1.17ZM1867.48,2058.85c0-1.67-.32-3.29-.96-4.86-.64-1.57-1.52-2.96-2.62-4.17-1.1-1.21-2.39-2.18-3.87-2.91-1.48-.73-3.05-1.1-4.73-1.1s-3.25.29-4.72.85c-1.48.57-2.76,1.4-3.85,2.51-1.09,1.1-1.95,2.47-2.58,4.1-.63,1.63-.94,3.49-.94,5.58s.31,3.95.94,5.58c.63,1.63,1.48,2.99,2.58,4.1,1.09,1.1,2.37,1.94,3.85,2.51s3.05.85,4.72.85,3.25-.37,4.73-1.1c1.48-.73,2.77-1.7,3.87-2.91,1.1-1.21,1.98-2.6,2.62-4.17.64-1.57.96-3.19.96-4.86Z"/>
          <path class="cls-1" d="M1935.46,2058.85c0,3.58-.64,6.92-1.93,10.01-1.28,3.09-3.03,5.76-5.24,8.02-2.21,2.25-4.8,4.03-7.77,5.33-2.97,1.3-6.16,1.95-9.56,1.95s-6.55-.65-9.52-1.95c-2.97-1.3-5.57-3.08-7.79-5.33-2.22-2.26-3.98-4.93-5.26-8.02-1.28-3.09-1.93-6.43-1.93-10.01s.64-7.02,1.93-10.12c1.28-3.11,3.04-5.79,5.26-8.04,2.23-2.26,4.82-4.02,7.79-5.31,2.97-1.28,6.14-1.93,9.52-1.93s6.59.61,9.56,1.81c2.97,1.21,5.56,2.93,7.77,5.15,2.21,2.23,3.96,4.9,5.24,8.02s1.93,6.59,1.93,10.41ZM1923.15,2058.85c0-1.97-.32-3.75-.96-5.35-.64-1.6-1.52-2.97-2.62-4.12-1.1-1.15-2.4-2.03-3.87-2.64-1.48-.61-3.05-.92-4.72-.92s-3.25.31-4.73.92-2.76,1.49-3.85,2.64c-1.09,1.15-1.95,2.52-2.57,4.12-.63,1.6-.94,3.38-.94,5.35,0,1.85.31,3.57.94,5.15.63,1.58,1.48,2.96,2.57,4.12,1.09,1.17,2.37,2.08,3.85,2.76s3.05,1.01,4.73,1.01,3.25-.31,4.72-.94c1.48-.63,2.77-1.51,3.87-2.64,1.1-1.13,1.98-2.51,2.62-4.12.64-1.61.96-3.39.96-5.33Z"/>
        </g>
      </g>
      <g>
        <path class="cls-1" d="M910.73,28.45c3.98-9.82,6.96-20.5,14.29-28.45-4.32,47.09,10.28,94.11,32.99,134.93,29.1,51.16,73.33,91.6,120.36,126.01,46.53,31.93,90.98,68.27,125.61,113.15,25.87,32.99,38.98,74.79,37.99,116.63,48.92,35.84,60.01,110.23,28.51,160.86-11.68,15.25-26.22,29.26-44.42,36.25,15.16-15.25,26.31-35.5,25.53-57.52.84-12.02-5.03-24.26-15.28-30.63-12.33-7.86-27.3-9.1-41.34-11.46-3.04,135.08.37,270.35-2.42,405.46-1.77,56.72-20.41,112.38-50.54,160.24-19.57,32.09-45.41,59.88-73.21,84.95-47.49,39.64-190.65,103-194.59,105.51,41.59-38.52,72.85-69.78,111.97-107.25,37.12-42.86,73.52-87.53,96.69-139.77,31.56-64.7,43.02-140.64,24.07-210.75-11.09-37.77-32.15-72.9-61.25-99.49-41.5-38.51-100.17-58.61-156.54-52.24.12-34.26,1.09-68.89,9.32-102.31,5.99-21.56,12.98-42.99,22.92-63.05,12.83-24.04,29.79-45.91,50.04-64.17,19.32-15.59,40.47-28.7,61.16-42.43-44.79,10.75-93.4,9.26-136.32-8.14-29.88-12.11-54.36-34.38-73.58-59.88-13.54-18.11-26.9-37.33-32.36-59.61,15.5,16.28,31.74,32.18,51.37,43.48,55.78,31.34,123.15,38.92,185.37,25.56,7.55-1.62,14.69-4.66,21.99-7.21-46.68-1.3-93.59-14.88-133.22-39.94-74.73-46.87-112.87-141.76-97.78-227.74,1.02-6.58,3.04-12.95,5.4-19.16-.75,48.08,24.44,91.75,53.33,128.4,52.34,64.36,134.71,97.22,215.68,104.83-31.96-12.14-63.86-25.9-91.07-46.99-45.22-33.55-81.91-80.7-96.13-135.8-9.78-43.45-10.41-90.17,5.47-132.29ZM1123,489.17c-8.85,3.98-17.95,10.34-20.56,20.25-5.06,15.44,4.63,33.2,19.66,38.64,21.18,9.35,48.11-12.89,42.06-35.63-3.63-17.92-24.32-27.8-41.16-23.26ZM1040.07,540.58c-38.98.5-73.43,35.5-75.01,74.14-3.54,40.35,29.2,79.64,69.45,83.8,42.4,6.03,86.53-27.89,88.06-71.44,5.44-45.81-36.99-89.05-82.5-86.5Z"/>
        <path class="cls-1" d="M632.24,410.81c20.13-13.73,40.53-32.89,66.69-31.06,28.08.37,46.28,35.6,33.02,59.45-5.81,11.68-18.26,17.21-28.14,24.82-51.44,35.6-97.62,79.55-131.82,132.13-28.95,43.76-50.26,92.34-64.7,142.72-24.35,99.36-19.75,206.46,17.7,302.03,10.03,24.07,22.27,47.21,35.44,69.7,16,24.57,4.26,65.69-26.18,72.18-17.36,5.4-35.78-4.38-45.69-18.64-17.52-25.69-34.48-52.06-46.5-80.85-26.49-61.62-41.12-128.22-43.73-195.25-4.1-57.87,4.41-115.82,18.82-171.76,10.62-37.4,23.67-74.33,42.15-108.62,20.87-41.47,46.28-80.79,77.62-115.08,30.1-29.04,60.66-58.05,95.32-81.78Z"/>
        <path class="cls-1" d="M1331.97,501.01c10.31-20.93,38.83-31.46,59.64-19.66,13.57,7.77,23.54,20.25,33.58,31.96,43.11,52.8,78.3,112.87,98.06,178.35,32.99,108.53,36.34,227.61.99,335.98-16.37,56.81-43.67,110.05-75.88,159.4-28.76,43.61-65.32,81.53-104.77,115.51-51.81,42.15-109.58,77.71-172.7,100.01-36.19,12.08-73.15,23.73-111.35,26.59-26.34.68-47.58-28.11-40.04-53.02,8.48-27.55,41.31-31.4,65.2-37.4,53.95-15.19,106.66-36.5,153.66-67.34,56.25-36.59,104.27-85.63,140.42-142.07,67.12-107.34,95.26-240.9,67.18-365.21-13.6-59.11-36.93-116.38-71.28-166.48-11.71-19.94-27.86-36.74-39.97-56.37-7.64-11.8-9.26-27.61-2.73-40.25Z"/>
        <path class="cls-1" d="M758.99,840.28c40.7-31.25,89.22-54.61,140.76-59.72,51.95-3.42,107.86,12.85,143.32,52.53,34.07,35.53,48.86,86.36,46.83,134.86-1.14,57.25-25.71,111.22-57.31,157.9-34,49.44-76.14,92.54-121,132.13-90.66,82.3-449.05,310.6-525.51,358.08,7.83-10.93,79.8-186.21,96.45-225.21,30.84-72.01,136.71-327.77,160.01-383.15,25.86-63.23,61.58-125,116.45-167.42Z"/>
      </g>
    </g>
  </g>
</svg>