<svg xmlns="http://www.w3.org/2000/svg" viewBox="0 0 1935.5 2101.6" xml:space="preserve">
  <style>
    .st0{fill:#fff}
  </style>
  <circle cx="954.2" cy="1010" r="779.6" id="Camada_3"/>
  <g id="Camada_2_00000154402734827062308300000003630344358946649019_">
    <path class="st0" d="M911.4 425.2c3-7.4 5.2-15.4 10.7-21.3-3.2 35.3 7.7 70.6 24.7 101.2 21.8 38.4 55 68.7 90.3 94.5 34.9 24 68.3 51.2 94.2 84.9 19.4 24.7 29.2 56.1 28.5 87.5 36.7 26.9 45 82.7 21.4 120.7-8.8 11.4-19.7 22-33.3 27.2 11.4-11.4 19.7-26.6 19.2-43.2.6-9-3.8-18.2-11.5-23-9.2-5.9-20.5-6.8-31-8.6-2.3 101.3.3 202.8-1.8 304.2-1.3 42.6-15.3 84.3-37.9 120.2-14.7 24.1-34.1 44.9-54.9 63.7-35.6 29.7-143 77.3-146 79.2 31.2-28.9 54.7-52.3 84-80.5 27.8-32.2 55.2-65.7 72.5-104.9 23.7-48.5 32.3-105.5 18.1-158.1-8.3-28.3-24.1-54.7-45.9-74.6-31.1-28.9-75.1-44-117.4-39.2.1-25.7.8-51.7 7-76.8 4.5-16.2 9.7-32.3 17.2-47.3 9.6-18 22.3-34.4 37.5-48.1 14.5-11.7 30.4-21.5 45.9-31.8-33.6 8.1-70.1 6.9-102.3-6.1-22.4-9.1-40.8-25.8-55.2-44.9-10.2-13.6-20.2-28-24.3-44.7 11.6 12.2 23.8 24.1 38.5 32.6 41.8 23.5 92.4 29.2 139.1 19.2 5.7-1.2 11-3.5 16.5-5.4-35-1-70.2-11.2-99.9-30-56.1-35.2-84.7-106.3-73.4-170.8.8-4.9 2.3-9.7 4.1-14.4-.6 36.1 18.3 68.8 40 96.3 39.3 48.3 101.1 72.9 161.8 78.6-24-9.1-47.9-19.4-68.3-35.3-33.9-25.2-61.4-60.5-72.1-101.9-7.4-32.5-7.9-67.5 4-99.1zm159.3 345.6c-6.6 3-13.5 7.8-15.4 15.2-3.8 11.6 3.5 24.9 14.7 29 15.9 7 36.1-9.7 31.6-26.7-2.8-13.5-18.3-20.9-30.9-17.5zm-62.2 38.6c-29.2.4-55.1 26.6-56.3 55.6-2.7 30.3 21.9 59.7 52.1 62.9 31.8 4.5 64.9-20.9 66.1-53.6 4-34.4-27.8-66.9-61.9-64.9zm-306-97.4c15.1-10.3 30.4-24.7 50-23.3 21.1.3 34.7 26.7 24.8 44.6-4.4 8.8-13.7 12.9-21.1 18.6-38.6 26.7-73.2 59.7-98.9 99.1-21.7 32.8-37.7 69.3-48.5 107.1-18.3 74.5-14.8 154.9 13.3 226.6 7.5 18.1 16.7 35.4 26.6 52.3 12 18.4 3.2 49.3-19.6 54.1-13 4.1-26.8-3.3-34.3-14-13.1-19.3-25.9-39.1-34.9-60.7-19.9-46.1-30.9-96.1-32.9-146.4-3.1-43.4 3.3-86.9 14.1-128.9 8-28.1 17.8-55.8 31.6-81.5 15.7-31.1 34.7-60.6 58.2-86.3 22.7-21.7 45.6-43.5 71.6-61.3z"/>
    <path class="st0" d="M1227.4 779.7c7.7-15.7 29.1-23.6 44.7-14.7 10.2 5.8 17.7 15.2 25.2 24 32.3 39.6 58.7 84.7 73.6 133.8 24.7 81.4 27.3 170.7.7 252-12.3 42.6-32.8 82.6-56.9 119.6-21.6 32.7-49 61.2-78.6 86.7-38.9 31.6-82.2 58.3-129.6 75-27.1 9.1-54.9 17.8-83.5 19.9-19.8.5-35.7-21.1-30-39.8 6.4-20.7 31-23.6 48.9-28.1 40.5-11.4 80-27.4 115.3-50.5 42.2-27.4 78.2-64.2 105.3-106.6 50.4-80.5 71.5-180.7 50.4-274-10.2-44.3-27.7-87.3-53.5-124.9-8.8-15-20.9-27.6-30-42.3-5.6-8.8-6.9-20.6-2-30.1zm-429.8 254.5c30.5-23.4 66.9-41 105.6-44.8 39-2.6 80.9 9.6 107.5 39.4 25.6 26.7 36.7 64.8 35.1 101.2-.9 42.9-19.3 83.4-43 118.5-25.5 37.1-57.1 69.4-90.8 99.1-68 61.7-336.9 233-394.2 268.6 5.9-8.2 59.9-139.7 72.4-168.9 23.1-54 102.6-245.9 120-287.4 19.4-47.6 46.2-93.9 87.4-125.7z"/>
  </g>
</svg>